<svg width="13" height="13" viewBox="0 0 13 13" fill="none" xmlns="http://www.w3.org/2000/svg">
<path d="M4.53418 0.778245C4.78085 0.531515 5.0737 0.335795 5.39602 0.202262C5.71834 0.0687292 6.0638 0 6.41268 0C6.76157 0 7.10703 0.0687292 7.42935 0.202262C7.75166 0.335795 8.04452 0.531515 8.29118 0.778245L12.0471 4.53418C12.2939 4.78085 12.4896 5.0737 12.6231 5.39602C12.7566 5.71834 12.8254 6.0638 12.8254 6.41268C12.8254 6.76157 12.7566 7.10703 12.6231 7.42935C12.4896 7.75166 12.2939 8.04452 12.0471 8.29118L8.29118 12.0471C8.04452 12.2939 7.75166 12.4896 7.42935 12.6231C7.10703 12.7566 6.76157 12.8254 6.41268 12.8254C6.0638 12.8254 5.71834 12.7566 5.39602 12.6231C5.0737 12.4896 4.78085 12.2939 4.53418 12.0471L0.778245 8.29118C0.531515 8.04452 0.335795 7.75166 0.202262 7.42935C0.0687292 7.10703 0 6.76157 0 6.41268C0 6.0638 0.0687292 5.71834 0.202262 5.39602C0.335795 5.0737 0.531515 4.78085 0.778245 4.53418L4.53418 0.778245ZM7.54 1.52943C7.39199 1.38133 7.21625 1.26385 7.02282 1.18369C6.82939 1.10353 6.62206 1.06227 6.41268 1.06227C6.2033 1.06227 5.99598 1.10353 5.80255 1.18369C5.60912 1.26385 5.43338 1.38133 5.28537 1.52943L1.52943 5.28537C1.38133 5.43338 1.26385 5.60912 1.18369 5.80255C1.10353 5.99598 1.06227 6.2033 1.06227 6.41268C1.06227 6.62206 1.10353 6.82939 1.18369 7.02282C1.26385 7.21625 1.38133 7.39199 1.52943 7.54L5.28537 11.2959C5.43338 11.444 5.60912 11.5615 5.80255 11.6417C5.99598 11.7218 6.2033 11.7631 6.41268 11.7631C6.62206 11.7631 6.82939 11.7218 7.02282 11.6417C7.21625 11.5615 7.39199 11.444 7.54 11.2959L11.2959 7.54C11.444 7.39199 11.5615 7.21625 11.6417 7.02282C11.7218 6.82939 11.7631 6.62206 11.7631 6.41268C11.7631 6.2033 11.7218 5.99598 11.6417 5.80255C11.5615 5.60912 11.444 5.43338 11.2959 5.28537L7.54 1.52943ZM6.56781 2.84906C6.66743 2.74946 6.80253 2.69352 6.9434 2.69352C7.08427 2.69352 7.21937 2.74946 7.319 2.84906L8.91275 4.44281C8.96222 4.49216 9.00147 4.55078 9.02825 4.61532C9.05504 4.67986 9.06882 4.74906 9.06882 4.81893C9.06882 4.88881 9.05504 4.958 9.02825 5.02254C9.00147 5.08709 8.96222 5.14571 8.91275 5.19506L7.319 6.78881C7.21924 6.88842 7.084 6.94433 6.94303 6.94423C6.80205 6.94413 6.66689 6.88803 6.56728 6.78828C6.46766 6.68852 6.41176 6.55328 6.41186 6.41231C6.41196 6.27133 6.46805 6.13617 6.56781 6.03656L7.25525 5.35018H5.88143C5.74054 5.35018 5.60541 5.40615 5.50578 5.50578C5.40615 5.60541 5.35018 5.74054 5.35018 5.88143V8.53768C5.35018 8.67858 5.29421 8.81371 5.19458 8.91333C5.09495 9.01296 4.95983 9.06893 4.81893 9.06893C4.67804 9.06893 4.54291 9.01296 4.44328 8.91333C4.34365 8.81371 4.28768 8.67858 4.28768 8.53768V5.88143C4.28768 5.45874 4.4556 5.05337 4.75448 4.75448C5.05337 4.4556 5.45874 4.28768 5.88143 4.28768H7.25525L6.56781 3.60131C6.51833 3.55196 6.47908 3.49334 6.4523 3.42879C6.42552 3.36425 6.41173 3.29506 6.41173 3.22518C6.41173 3.15531 6.42552 3.08611 6.4523 3.02157C6.47908 2.95703 6.51833 2.89841 6.56781 2.84906Z" fill="#EFF7F5"/>
</svg>
